<svg width="228" height="216" viewBox="0 0 228 216" fill="none" xmlns="http://www.w3.org/2000/svg">
<path d="M1 215L184.5 68V61M184.5 61C179.5 62.5 168.2 62.6 163 51C165 55.8333 172.1 64.6 184.5 61ZM184.5 61C184.5 57.3333 185.2 49.9 188 49.5C191.5 49 172 52 167 32.5C162 13 177 14 172 14C167 14 172 3 172 1C172 -0.6 180.333 3.33333 184.5 5.5C190.667 4.5 203.9 3.1 207.5 5.5C212 8.5 205.5 3 220.5 1C222 2.33332 224.4 6.79998 222 14C224.667 16 229.2 22.7 226 33.5C222.8 44.3 210.667 48.6667 205 49.5C206.833 49.8333 210.2 54 209 68" stroke="black"/>
</svg>
